<svg width="146" height="34" viewBox="0 0 146 34" fill="none" xmlns="http://www.w3.org/2000/svg">
<path d="M17.7434 33.1411H14.5388C11.8673 33.1411 9.70215 30.976 9.70215 28.3044V25.0269C9.70215 24.1511 8.99224 23.439 8.11425 23.439H4.8367C2.16512 23.439 0 21.2739 0 18.6023V15.3977C0 12.7262 2.16512 10.561 4.8367 10.561H6.71653C7.40654 10.561 7.96607 11.1206 7.96607 11.8106C7.96607 12.5006 7.40654 13.0601 6.71653 13.0601H4.8367C3.54514 13.0601 2.49686 14.1084 2.49686 15.3999V18.6045C2.49686 19.8961 3.54514 20.9444 4.8367 20.9444H8.11425C10.37 20.9444 12.2012 22.7733 12.2012 25.0313V28.3089C12.2012 29.6004 13.2495 30.6487 14.5411 30.6487H17.7456C19.0372 30.6487 20.0855 29.6004 20.0855 28.3089V25.885C20.0855 23.8393 19.2893 21.9152 17.8429 20.4689L12.6811 15.3049C10.7637 13.3852 9.70658 10.8353 9.70658 8.12168V5.69559C9.70658 3.02401 11.8717 0.858887 14.5433 0.858887H17.7478C20.4194 0.858887 22.5845 3.02401 22.5845 5.69559V8.97313C22.5845 9.84891 23.2944 10.561 24.1724 10.561H27.45C30.1216 10.561 32.2867 12.7262 32.2867 15.3977V18.6023C32.2867 21.2739 30.1216 23.439 27.45 23.439H25.5724C24.8824 23.439 24.3228 22.8795 24.3228 22.1895C24.3228 21.4995 24.8824 20.9399 25.5724 20.9399H27.45C28.7415 20.9399 29.7898 19.8916 29.7898 18.6001V15.3955C29.7898 14.104 28.7415 13.0557 27.45 13.0557H24.168C21.9122 13.0557 20.0833 11.2267 20.0833 8.97092V5.69559C20.0833 4.40403 19.035 3.35575 17.7434 3.35575H14.5388C13.2473 3.35575 12.199 4.40182 12.199 5.69559V8.11947C12.199 10.1652 12.9952 12.0892 14.4415 13.5356L19.6033 18.6974C21.523 20.6148 22.5779 23.167 22.5779 25.8806V28.3044C22.5801 30.9738 20.415 33.1411 17.7434 33.1411Z" fill="#199A8E"/>
<path d="M56.1169 26.8277C54.6421 26.8277 53.2675 26.591 51.993 26.1177C50.7368 25.6261 49.6443 24.9342 48.7158 24.0421C47.7872 23.1499 47.059 22.103 46.531 20.9014C46.0212 19.6997 45.7663 18.3797 45.7663 16.9414C45.7663 15.503 46.0212 14.183 46.531 12.9814C47.059 11.7797 47.7872 10.7328 48.7158 9.84069C49.6626 8.94855 50.7641 8.26579 52.0203 7.79241C53.2766 7.30083 54.6512 7.05503 56.1442 7.05503C57.801 7.05503 59.294 7.34634 60.6231 7.92897C61.9704 8.49338 63.0992 9.3309 64.0096 10.4415L61.1693 13.0633C60.5139 12.3168 59.7856 11.7615 58.9845 11.3974C58.1834 11.015 57.3094 10.8239 56.3627 10.8239C55.4706 10.8239 54.6512 10.9695 53.9048 11.2608C53.1583 11.5521 52.5119 11.9709 51.9657 12.5171C51.4195 13.0633 50.9917 13.7097 50.6821 14.4561C50.3908 15.2026 50.2452 16.031 50.2452 16.9414C50.2452 17.8517 50.3908 18.6801 50.6821 19.4266C50.9917 20.1731 51.4195 20.8194 51.9657 21.3657C52.5119 21.9119 53.1583 22.3306 53.9048 22.6219C54.6512 22.9132 55.4706 23.0589 56.3627 23.0589C57.3094 23.0589 58.1834 22.8768 58.9845 22.5127C59.7856 22.1303 60.5139 21.5568 61.1693 20.7921L64.0096 23.4139C63.0992 24.5246 61.9704 25.3712 60.6231 25.9538C59.294 26.5364 57.7919 26.8277 56.1169 26.8277ZM72.5496 26.7185C71.3298 26.7185 70.2373 26.4818 69.2724 26.0084C68.3256 25.535 67.5882 24.8159 67.0602 23.8509C66.5322 22.8677 66.2682 21.6206 66.2682 20.1094V11.807H70.5287V19.4812C70.5287 20.7011 70.7835 21.6023 71.2933 22.185C71.8213 22.7494 72.5587 23.0316 73.5055 23.0316C74.1609 23.0316 74.7435 22.895 75.2533 22.6219C75.7631 22.3306 76.1637 21.8937 76.455 21.311C76.7463 20.7102 76.892 19.9637 76.892 19.0716V11.807H81.1524V26.5H77.1104V22.4581L77.8478 23.6324C77.3562 24.652 76.628 25.4258 75.663 25.9538C74.7162 26.4636 73.6784 26.7185 72.5496 26.7185ZM85.0994 26.5V11.807H89.3598V26.5H85.0994ZM87.2296 9.75876C86.4467 9.75876 85.8094 9.53117 85.3178 9.076C84.8263 8.62083 84.5805 8.05641 84.5805 7.38276C84.5805 6.7091 84.8263 6.14469 85.3178 5.68952C85.8094 5.23434 86.4467 5.00676 87.2296 5.00676C88.0125 5.00676 88.6497 5.22524 89.1413 5.66221C89.6329 6.08097 89.8787 6.62717 89.8787 7.30083C89.8787 8.0109 89.6329 8.60262 89.1413 9.076C88.6679 9.53117 88.0307 9.75876 87.2296 9.75876ZM99.6225 26.7185C98.2388 26.7185 96.9916 26.409 95.881 25.7899C94.7704 25.1527 93.8873 24.2697 93.2319 23.1408C92.5946 22.012 92.276 20.6829 92.276 19.1535C92.276 17.6059 92.5946 16.2677 93.2319 15.1389C93.8873 14.0101 94.7704 13.1361 95.881 12.5171C96.9916 11.8981 98.2388 11.5886 99.6225 11.5886C100.861 11.5886 101.944 11.8617 102.872 12.4079C103.801 12.9541 104.52 13.7825 105.03 14.8931C105.54 16.0037 105.795 17.4239 105.795 19.1535C105.795 20.865 105.549 22.2851 105.057 23.4139C104.566 24.5246 103.856 25.353 102.927 25.8992C102.017 26.4454 100.915 26.7185 99.6225 26.7185ZM100.36 23.2228C101.052 23.2228 101.68 23.0589 102.244 22.7312C102.809 22.4034 103.255 21.9392 103.582 21.3383C103.928 20.7193 104.101 19.991 104.101 19.1535C104.101 18.2978 103.928 17.5695 103.582 16.9687C103.255 16.3679 102.809 15.9036 102.244 15.5759C101.68 15.2481 101.052 15.0843 100.36 15.0843C99.6498 15.0843 99.0126 15.2481 98.4481 15.5759C97.8837 15.9036 97.4286 16.3679 97.0826 16.9687C96.7549 17.5695 96.591 18.2978 96.591 19.1535C96.591 19.991 96.7549 20.7193 97.0826 21.3383C97.4286 21.9392 97.8837 22.4034 98.4481 22.7312C99.0126 23.0589 99.6498 23.2228 100.36 23.2228ZM104.211 26.5V23.4959L104.293 19.1262L104.019 14.7839V6.23572H108.28V26.5H104.211ZM119.515 26.7185C117.84 26.7185 116.365 26.3908 115.091 25.7353C113.834 25.0799 112.86 24.1877 112.168 23.0589C111.477 21.9119 111.131 20.6101 111.131 19.1535C111.131 17.6788 111.467 16.377 112.141 15.2481C112.833 14.1011 113.771 13.209 114.954 12.5717C116.137 11.9163 117.476 11.5886 118.969 11.5886C120.407 11.5886 121.7 11.8981 122.847 12.5171C124.012 13.1179 124.931 13.9919 125.605 15.1389C126.279 16.2677 126.616 17.6241 126.616 19.2081C126.616 19.372 126.606 19.5632 126.588 19.7817C126.57 19.9819 126.552 20.1731 126.534 20.3552H114.599V17.8699H124.294L122.656 18.6073C122.656 17.8426 122.501 17.1781 122.191 16.6137C121.882 16.0492 121.454 15.6123 120.908 15.3028C120.361 14.975 119.724 14.8112 118.996 14.8112C118.268 14.8112 117.621 14.975 117.057 15.3028C116.511 15.6123 116.083 16.0583 115.773 16.641C115.464 17.2054 115.309 17.879 115.309 18.6619V19.3174C115.309 20.1185 115.482 20.8286 115.828 21.4476C116.192 22.0484 116.693 22.5127 117.33 22.8404C117.985 23.1499 118.75 23.3047 119.624 23.3047C120.407 23.3047 121.09 23.1863 121.672 22.9497C122.273 22.713 122.819 22.3579 123.311 21.8846L125.578 24.3425C124.904 25.1072 124.057 25.6989 123.038 26.1177C122.018 26.5182 120.844 26.7185 119.515 26.7185ZM136.744 26.7185C135.069 26.7185 133.594 26.3908 132.32 25.7353C131.063 25.0799 130.089 24.1877 129.397 23.0589C128.706 21.9119 128.36 20.6101 128.36 19.1535C128.36 17.6788 128.696 16.377 129.37 15.2481C130.062 14.1011 131 13.209 132.183 12.5717C133.366 11.9163 134.705 11.5886 136.198 11.5886C137.636 11.5886 138.929 11.8981 140.076 12.5171C141.241 13.1179 142.16 13.9919 142.834 15.1389C143.508 16.2677 143.845 17.6241 143.845 19.2081C143.845 19.372 143.835 19.5632 143.817 19.7817C143.799 19.9819 143.781 20.1731 143.763 20.3552H131.828V17.8699H141.523L139.885 18.6073C139.885 17.8426 139.73 17.1781 139.42 16.6137C139.111 16.0492 138.683 15.6123 138.137 15.3028C137.59 14.975 136.953 14.8112 136.225 14.8112C135.497 14.8112 134.85 14.975 134.286 15.3028C133.74 15.6123 133.312 16.0583 133.002 16.641C132.693 17.2054 132.538 17.879 132.538 18.6619V19.3174C132.538 20.1185 132.711 20.8286 133.057 21.4476C133.421 22.0484 133.922 22.5127 134.559 22.8404C135.214 23.1499 135.979 23.3047 136.853 23.3047C137.636 23.3047 138.319 23.1863 138.901 22.9497C139.502 22.713 140.048 22.3579 140.54 21.8846L142.807 24.3425C142.133 25.1072 141.286 25.6989 140.267 26.1177C139.247 26.5182 138.073 26.7185 136.744 26.7185Z" fill="white"/>
</svg>
