<svg width="48" height="49" viewBox="0 0 48 49" fill="none" xmlns="http://www.w3.org/2000/svg">
<rect y="0.879883" width="48" height="48" rx="24" fill="#199A8E"/>
<path d="M25.4356 39.3676H22.5593C20.1614 39.3676 18.2181 37.4242 18.2181 35.0263V32.0845C18.2181 31.2985 17.5809 30.6593 16.7928 30.6593H13.851C11.4531 30.6593 9.50977 28.7159 9.50977 26.318V23.4417C9.50977 21.0438 11.4531 19.1005 13.851 19.1005H15.5383C16.1576 19.1005 16.6598 19.6027 16.6598 20.222C16.6598 20.8414 16.1576 21.3436 15.5383 21.3436H13.851C12.6918 21.3436 11.7508 22.2845 11.7508 23.4437V26.32C11.7508 27.4793 12.6918 28.4202 13.851 28.4202H16.7928C18.8175 28.4202 20.4611 30.0618 20.4611 32.0885V35.0303C20.4611 36.1895 21.402 37.1304 22.5613 37.1304H25.4376C26.5968 37.1304 27.5377 36.1895 27.5377 35.0303V32.8547C27.5377 31.0186 26.8231 29.2916 25.5249 27.9934L20.8919 23.3584C19.1709 21.6354 18.222 19.3466 18.222 16.911V14.7335C18.222 12.3355 20.1654 10.3922 22.5633 10.3922H25.4396C27.8375 10.3922 29.7808 12.3355 29.7808 14.7335V17.6753C29.7808 18.4613 30.418 19.1005 31.206 19.1005H34.1478C36.5457 19.1005 38.4891 21.0438 38.4891 23.4417V26.318C38.4891 28.7159 36.5457 30.6593 34.1478 30.6593H32.4626C31.8432 30.6593 31.341 30.1571 31.341 29.5377C31.341 28.9184 31.8432 28.4162 32.4626 28.4162H34.1478C35.3071 28.4162 36.248 27.4753 36.248 26.316V23.4398C36.248 22.2805 35.3071 21.3396 34.1478 21.3396H31.2021C29.1774 21.3396 27.5357 19.698 27.5357 17.6733V14.7335C27.5357 13.5742 26.5948 12.6333 25.4356 12.6333H22.5593C21.4 12.6333 20.4591 13.5722 20.4591 14.7335V16.909C20.4591 18.7452 21.1737 20.4721 22.4719 21.7704L27.105 26.4034C28.828 28.1244 29.7748 30.4151 29.7748 32.8507V35.0263C29.7768 37.4222 27.8335 39.3676 25.4356 39.3676Z" fill="#E6FFF2"/>
</svg>
