<svg width="22" height="23" viewBox="0 0 22 23" fill="none" xmlns="http://www.w3.org/2000/svg">
<path fill-rule="evenodd" clip-rule="evenodd" d="M16.8474 15.6951L15.8053 14.6529C15.2846 14.1323 14.4406 14.1323 13.9209 14.6529L13.1018 15.4721C12.9188 15.6551 12.6416 15.7164 12.4053 15.6124C11.2183 15.0927 10.0456 14.3047 8.99991 13.259C7.95868 12.2178 7.17331 11.0504 6.65269 9.86786C6.5443 9.62354 6.60738 9.33658 6.79661 9.14735L7.53046 8.41351C8.12659 7.81737 8.12659 6.97425 7.60597 6.45363L6.56385 5.41151C5.86998 4.71765 4.74524 4.71765 4.05137 5.41151L3.47212 5.98988C2.81379 6.6482 2.53927 7.59793 2.71696 8.53966C3.15584 10.8611 4.50447 13.4029 6.68023 15.5787C8.85599 17.7544 11.3978 19.1031 13.7192 19.5419C14.661 19.7196 15.6107 19.4451 16.269 18.7868L16.8474 18.2084C17.5413 17.5146 17.5413 16.3898 16.8474 15.6951Z" fill="#00647E" stroke="#00647E" stroke-width="1.33264" stroke-linecap="round" stroke-linejoin="round"/>
<path d="M11.5488 7.14919C12.4648 7.13676 13.3852 7.47614 14.0844 8.17533" stroke="#00647E" stroke-width="1.33264" stroke-linecap="round" stroke-linejoin="round"/>
<path d="M16.5969 5.66289C15.2029 4.26895 13.3754 3.57153 11.5488 3.57153" stroke="#00647E" stroke-width="1.33264" stroke-linecap="round" stroke-linejoin="round"/>
<path d="M15.1101 10.7108C15.1226 9.79483 14.7832 8.87442 14.084 8.17523" stroke="#00647E" stroke-width="1.33264" stroke-linecap="round" stroke-linejoin="round"/>
<path d="M16.5967 5.66284C17.9906 7.05678 18.688 8.88428 18.688 10.7109" stroke="#00647E" stroke-width="1.33264" stroke-linecap="round" stroke-linejoin="round"/>
</svg>
