<svg width="22" height="22" viewBox="0 0 22 22" fill="none" xmlns="http://www.w3.org/2000/svg">
<g clip-path="url(#clip0_3777_21522)">
<path d="M1.32538 11.1242C1.3249 12.8545 1.777 14.5439 2.63666 16.0331L1.24316 21.1209L6.44996 19.7557C7.89009 20.5397 9.50365 20.9505 11.1434 20.9506H11.1477C16.5606 20.9506 20.9669 16.5459 20.9692 11.132C20.9703 8.50854 19.9495 6.04163 18.095 4.18566C16.2408 2.32986 13.7748 1.30729 11.1473 1.30609C5.73366 1.30609 1.32769 5.71054 1.32546 11.1242" fill="#00647E"/>
<path d="M0.976032 11.1207C0.975473 12.9132 1.44377 14.6631 2.33408 16.2055L0.890625 21.4758L6.28412 20.0616C7.7702 20.8718 9.44338 21.299 11.1459 21.2997H11.1503C16.7575 21.2997 21.3221 16.7365 21.3245 11.1288C21.3254 8.41112 20.268 5.85554 18.3472 3.93308C16.4262 2.01086 13.8719 0.951496 11.1503 0.950378C5.54219 0.950378 0.978267 5.51287 0.976032 11.1207ZM4.18805 15.9399L3.98667 15.6202C3.1401 14.2741 2.69327 12.7186 2.69391 11.1213C2.69567 6.46025 6.48902 2.6681 11.1535 2.6681C13.4124 2.66905 15.5353 3.54963 17.132 5.1473C18.7286 6.74512 19.6072 8.86913 19.6067 11.1282C19.6046 15.7892 15.8111 19.5819 11.1503 19.5819H11.147C9.62936 19.5811 8.14096 19.1735 6.84293 18.4033L6.53403 18.2202L3.33343 19.0593L4.18805 15.9399Z" fill="url(#paint0_linear_3777_21522)"/>
<path d="M8.60733 6.86905C8.41688 6.44577 8.21646 6.43723 8.03535 6.4298C7.88704 6.42342 7.7175 6.4239 7.54813 6.4239C7.37859 6.4239 7.10313 6.48767 6.8703 6.7419C6.63722 6.99636 5.98047 7.61129 5.98047 8.86199C5.98047 10.1128 6.89145 11.3215 7.01844 11.4912C7.1456 11.6607 8.77711 14.3094 11.361 15.3284C13.5085 16.1752 13.9455 16.0068 14.4116 15.9643C14.8777 15.922 15.9157 15.3496 16.1275 14.7559C16.3394 14.1624 16.3394 13.6536 16.2758 13.5473C16.2123 13.4414 16.0428 13.3778 15.7885 13.2507C15.5342 13.1236 14.2844 12.5085 14.0514 12.4237C13.8184 12.3389 13.6489 12.2966 13.4794 12.5512C13.3098 12.8053 12.823 13.3778 12.6746 13.5473C12.5264 13.7173 12.378 13.7384 12.1239 13.6113C11.8695 13.4837 11.0508 13.2156 10.0794 12.3496C9.32371 11.6758 8.81351 10.8437 8.6652 10.5891C8.5169 10.335 8.64932 10.1972 8.77679 10.0705C8.89101 9.95663 9.0311 9.77369 9.15833 9.6253C9.28508 9.47684 9.32739 9.37092 9.41215 9.20138C9.497 9.03168 9.45454 8.88322 9.39108 8.75607C9.32739 8.62892 8.83338 7.37168 8.60733 6.86905Z" fill="white"/>
</g>
<defs>
<linearGradient id="paint0_linear_3777_21522" x1="1022.58" y1="2053.49" x2="1022.58" y2="0.950378" gradientUnits="userSpaceOnUse">
<stop stop-color="#F9F9F9"/>
<stop offset="1" stop-color="white"/>
</linearGradient>
<clipPath id="clip0_3777_21522">
<rect width="20.4338" height="20.5935" fill="white" transform="translate(0.889648 0.950439)"/>
</clipPath>
</defs>
</svg>
