<svg width="26" height="26" viewBox="0 0 26 26" fill="none" xmlns="http://www.w3.org/2000/svg">
<path d="M6.72559 5.1709C6.72559 4.52126 6.98365 3.89823 7.44302 3.43887C7.90238 2.9795 8.52541 2.72144 9.17505 2.72144H16.7461C17.3958 2.72144 18.0188 2.9795 18.4782 3.43887C18.9375 3.89823 19.1956 4.52126 19.1956 5.1709V21.6491C19.1956 22.2988 18.9375 22.9218 18.4782 23.3811C18.0188 23.8405 17.3958 24.0986 16.7461 24.0986H9.17505C8.52541 24.0986 7.90238 23.8405 7.44302 23.3811C6.98365 22.9218 6.72559 22.2988 6.72559 21.6491V5.1709ZM11.4018 19.645C11.2247 19.645 11.0547 19.7154 10.9295 19.8407C10.8042 19.966 10.7338 20.1359 10.7338 20.313C10.7338 20.4902 10.8042 20.6601 10.9295 20.7854C11.0547 20.9107 11.2247 20.9811 11.4018 20.9811H14.5193C14.6965 20.9811 14.8664 20.9107 14.9917 20.7854C15.117 20.6601 15.1874 20.4902 15.1874 20.313C15.1874 20.1359 15.117 19.966 14.9917 19.8407C14.8664 19.7154 14.6965 19.645 14.5193 19.645H11.4018Z" fill="#000000"/>
</svg>
