<svg width="32" height="26" viewBox="0 0 32 26" fill="none" xmlns="http://www.w3.org/2000/svg">
<path fill-rule="evenodd" clip-rule="evenodd" d="M22.9842 24.9672L31.728 11.7428C32.0715 11.2233 31.9322 10.5214 31.417 10.175C31.2328 10.0512 31.0164 9.98514 30.795 9.98514H23.92V1.65985C23.92 1.03546 23.418 0.529297 22.7987 0.529297C22.4238 0.529297 22.0738 0.718214 21.8658 1.03273L13.122 14.2571C12.7785 14.7766 12.9178 15.4785 13.433 15.8249C13.6172 15.9487 13.8336 16.0148 14.055 16.0148H20.93V24.3401C20.93 24.9644 21.432 25.4706 22.0512 25.4706C22.4261 25.4706 22.7762 25.2817 22.9842 24.9672Z" fill="#000000"/>
<path opacity="0.6" fill-rule="evenodd" clip-rule="evenodd" d="M5.23256 2.44824H12.7076C13.9461 2.44824 14.9502 3.46058 14.9502 4.70935C14.9502 5.95813 13.9461 6.97046 12.7076 6.97046H5.23256C3.99404 6.97046 2.99003 5.95813 2.99003 4.70935C2.99003 3.46058 3.99404 2.44824 5.23256 2.44824ZM5.23256 20.5371H12.7076C13.9461 20.5371 14.9502 21.5495 14.9502 22.7982C14.9502 24.047 13.9461 25.0594 12.7076 25.0594H5.23256C3.99404 25.0594 2.99003 24.047 2.99003 22.7982C2.99003 21.5495 3.99404 20.5371 5.23256 20.5371ZM2.24252 11.4927H8.22259C9.4611 11.4927 10.4651 12.505 10.4651 13.7538C10.4651 15.0026 9.4611 16.0149 8.22259 16.0149H2.24252C1.00401 16.0149 0 15.0026 0 13.7538C0 12.505 1.00401 11.4927 2.24252 11.4927Z" fill="#000000"/>
</svg>
